<svg xmlns="http://www.w3.org/2000/svg" xmlns:xlink="http://www.w3.org/1999/xlink" width="500" zoomAndPan="magnify" viewBox="0 0 375 374.999991" height="500" preserveAspectRatio="xMidYMid meet" version="1.0"><defs><g/><clipPath id="id1"><path d="M 94.851562 43.105469 L 280.101562 43.105469 L 280.101562 228.355469 L 94.851562 228.355469 Z M 94.851562 43.105469 " clip-rule="nonzero"/></clipPath><clipPath id="id2"><path d="M 135 110 L 280.101562 110 L 280.101562 227 L 135 227 Z M 135 110 " clip-rule="nonzero"/></clipPath></defs><g clip-path="url(#id1)"><path fill="#a8cf45" d="M 280.152344 135.769531 C 280.152344 176.507812 253.863281 211.101562 217.320312 223.5 C 214.277344 224.542969 211.148438 225.421875 207.972656 226.140625 C 206.878906 226.390625 205.78125 226.617188 204.671875 226.824219 C 204.578125 226.839844 204.480469 226.859375 204.386719 226.875 C 198.914062 227.886719 193.269531 228.410156 187.511719 228.410156 C 183.894531 228.410156 180.320312 228.203125 176.816406 227.800781 C 130.6875 222.496094 94.871094 183.316406 94.871094 135.769531 C 94.871094 84.601562 136.347656 43.128906 187.511719 43.128906 C 225.589844 43.128906 258.296875 66.09375 272.535156 98.929688 C 272.734375 99.394531 272.933594 99.847656 273.121094 100.3125 C 275 104.851562 276.542969 109.585938 277.6875 114.464844 C 278.242188 116.816406 278.707031 119.203125 279.074219 121.625 C 279.203125 122.496094 279.328125 123.378906 279.441406 124.265625 C 279.910156 128.027344 280.152344 131.871094 280.152344 135.769531 Z M 280.152344 135.769531 " fill-opacity="1" fill-rule="nonzero"/></g><g clip-path="url(#id2)"><path fill="#5c964a" d="M 280.152344 135.769531 C 280.152344 176.507812 253.863281 211.101562 217.320312 223.5 C 214.277344 224.542969 211.148438 225.421875 207.972656 226.140625 L 135.011719 175.175781 L 257.195312 110.257812 L 279.441406 124.265625 C 279.910156 128.027344 280.152344 131.871094 280.152344 135.769531 Z M 280.152344 135.769531 " fill-opacity="1" fill-rule="nonzero"/></g><path fill="#d7f9ff" d="M 135.011719 111.683594 L 135.011719 175.175781 C 135.011719 177.984375 157.660156 180.257812 185.589844 180.257812 C 213.519531 180.257812 236.167969 177.984375 236.167969 175.175781 L 236.167969 111.683594 Z M 135.011719 111.683594 " fill-opacity="1" fill-rule="nonzero"/><path fill="#008037" d="M 257.464844 116.964844 L 186.769531 142.054688 C 186.007812 142.328125 185.179688 142.328125 184.421875 142.054688 L 113.726562 116.964844 C 110.476562 115.8125 110.660156 111.148438 114 110.257812 L 184.695312 91.398438 C 185.289062 91.234375 185.910156 91.234375 186.507812 91.398438 L 257.203125 110.257812 C 260.527344 111.148438 260.714844 115.804688 257.464844 116.964844 Z M 257.464844 116.964844 " fill-opacity="1" fill-rule="nonzero"/><path fill="#e43626" d="M 236.460938 112.746094 C 241.867188 111.925781 247.53125 113.691406 251.039062 118.027344 C 254.964844 122.878906 253.183594 129.519531 252.101562 135.101562 C 249.992188 146.070312 250.296875 156.605469 254.554688 167.050781 C 255.082031 168.34375 257.210938 167.777344 256.675781 166.464844 C 253.871094 159.574219 252.492188 152.269531 252.910156 144.820312 C 253.3125 137.601562 256.367188 130.308594 255.523438 123.03125 C 254.457031 113.816406 244.085938 109.378906 235.867188 110.625 C 234.480469 110.832031 235.074219 112.953125 236.460938 112.746094 Z M 236.460938 112.746094 " fill-opacity="1" fill-rule="nonzero"/><path fill="#e43626" d="M 251.875 176.972656 C 252.066406 176.597656 252.410156 175.421875 252.726562 175.144531 C 252.902344 175.511719 252.941406 176.730469 253.019531 177.132812 C 253.542969 177.183594 255.515625 177.214844 255.976562 177.207031 C 255.96875 176.800781 255.917969 175.703125 255.910156 175.296875 C 256.269531 175.6875 256.675781 176.78125 257.035156 177.167969 C 258.191406 177.074219 259.359375 176.882812 260.503906 176.621094 C 260.488281 176.515625 260.078125 174.449219 260.0625 174.433594 C 260.1875 174.5 260.980469 176.03125 261.148438 176.457031 C 261.992188 176.238281 262.828125 175.964844 263.644531 175.65625 C 262.609375 173.273438 261.65625 170.851562 260.363281 168.578125 C 259.617188 167.265625 258.832031 165.953125 257.839844 164.808594 C 256.980469 163.816406 255.675781 162.503906 254.246094 162.613281 C 253.328125 162.679688 252.59375 163.390625 252.089844 164.167969 C 252.074219 164.199219 252.050781 164.226562 252.039062 164.25 C 250.929688 166.011719 250.597656 168.128906 250.144531 170.117188 C 250.042969 170.566406 249.34375 174.535156 249.082031 176.265625 C 249.96875 176.574219 250.90625 176.808594 251.875 176.972656 Z M 251.875 176.972656 " fill-opacity="1" fill-rule="nonzero"/><g fill="#5c964a" fill-opacity="1"><g transform="translate(21.090959, 301.087107)"><g><path d="M 1.28125 -26.203125 C 1.28125 -28.992188 1.941406 -31.132812 3.265625 -32.625 C 4.597656 -34.125 6.597656 -34.875 9.265625 -34.875 C 11.921875 -34.875 13.914062 -34.125 15.25 -32.625 C 16.582031 -31.132812 17.25 -28.992188 17.25 -26.203125 L 17.25 -25.125 L 12.125 -25.125 L 12.125 -26.546875 C 12.125 -27.796875 11.882812 -28.675781 11.40625 -29.1875 C 10.925781 -29.695312 10.257812 -29.953125 9.40625 -29.953125 C 8.550781 -29.953125 7.882812 -29.695312 7.40625 -29.1875 C 6.9375 -28.675781 6.703125 -27.796875 6.703125 -26.546875 C 6.703125 -25.367188 6.960938 -24.328125 7.484375 -23.421875 C 8.015625 -22.523438 8.671875 -21.671875 9.453125 -20.859375 C 10.242188 -20.054688 11.085938 -19.253906 11.984375 -18.453125 C 12.890625 -17.648438 13.738281 -16.769531 14.53125 -15.8125 C 15.320312 -14.863281 15.976562 -13.78125 16.5 -12.5625 C 17.03125 -11.34375 17.296875 -9.914062 17.296875 -8.28125 C 17.296875 -5.488281 16.613281 -3.34375 15.25 -1.84375 C 13.882812 -0.351562 11.875 0.390625 9.21875 0.390625 C 6.550781 0.390625 4.535156 -0.351562 3.171875 -1.84375 C 1.816406 -3.34375 1.140625 -5.488281 1.140625 -8.28125 L 1.140625 -10.390625 L 6.25 -10.390625 L 6.25 -7.9375 C 6.25 -6.6875 6.503906 -5.8125 7.015625 -5.3125 C 7.523438 -4.820312 8.207031 -4.578125 9.0625 -4.578125 C 9.914062 -4.578125 10.597656 -4.820312 11.109375 -5.3125 C 11.617188 -5.8125 11.875 -6.6875 11.875 -7.9375 C 11.875 -9.113281 11.609375 -10.15625 11.078125 -11.0625 C 10.554688 -11.96875 9.898438 -12.820312 9.109375 -13.625 C 8.328125 -14.425781 7.484375 -15.226562 6.578125 -16.03125 C 5.671875 -16.84375 4.820312 -17.722656 4.03125 -18.671875 C 3.25 -19.617188 2.59375 -20.703125 2.0625 -21.921875 C 1.539062 -23.140625 1.28125 -24.566406 1.28125 -26.203125 Z M 1.28125 -26.203125 "/></g></g></g><g fill="#5c964a" fill-opacity="1"><g transform="translate(44.886558, 301.087107)"><g><path d="M 7.390625 0 L 1.96875 0 L 1.96875 -34.484375 L 7.390625 -34.484375 L 7.390625 -19.703125 L 13.546875 -19.703125 L 13.546875 -34.484375 L 19.0625 -34.484375 L 19.0625 0 L 13.546875 0 L 13.546875 -14.78125 L 7.390625 -14.78125 Z M 7.390625 0 "/></g></g></g><g fill="#5c964a" fill-opacity="1"><g transform="translate(71.293146, 301.087107)"><g><path d="M 1.96875 -34.484375 L 7.390625 -34.484375 L 7.390625 0 L 1.96875 0 Z M 1.96875 -34.484375 "/></g></g></g><g fill="#5c964a" fill-opacity="1"><g transform="translate(86.024205, 301.087107)"><g><path d="M 9.0625 -13.75 L 7.390625 -10.59375 L 7.390625 0 L 1.96875 0 L 1.96875 -34.484375 L 7.390625 -34.484375 L 7.390625 -19.453125 L 14.484375 -34.484375 L 19.90625 -34.484375 L 12.359375 -19.109375 L 19.90625 0 L 14.34375 0 Z M 9.0625 -13.75 "/></g></g></g><g fill="#5c964a" fill-opacity="1"><g transform="translate(111.79036, 301.087107)"><g><path d="M 1.28125 -26.203125 C 1.28125 -28.992188 1.941406 -31.132812 3.265625 -32.625 C 4.597656 -34.125 6.597656 -34.875 9.265625 -34.875 C 11.921875 -34.875 13.914062 -34.125 15.25 -32.625 C 16.582031 -31.132812 17.25 -28.992188 17.25 -26.203125 L 17.25 -25.125 L 12.125 -25.125 L 12.125 -26.546875 C 12.125 -27.796875 11.882812 -28.675781 11.40625 -29.1875 C 10.925781 -29.695312 10.257812 -29.953125 9.40625 -29.953125 C 8.550781 -29.953125 7.882812 -29.695312 7.40625 -29.1875 C 6.9375 -28.675781 6.703125 -27.796875 6.703125 -26.546875 C 6.703125 -25.367188 6.960938 -24.328125 7.484375 -23.421875 C 8.015625 -22.523438 8.671875 -21.671875 9.453125 -20.859375 C 10.242188 -20.054688 11.085938 -19.253906 11.984375 -18.453125 C 12.890625 -17.648438 13.738281 -16.769531 14.53125 -15.8125 C 15.320312 -14.863281 15.976562 -13.78125 16.5 -12.5625 C 17.03125 -11.34375 17.296875 -9.914062 17.296875 -8.28125 C 17.296875 -5.488281 16.613281 -3.34375 15.25 -1.84375 C 13.882812 -0.351562 11.875 0.390625 9.21875 0.390625 C 6.550781 0.390625 4.535156 -0.351562 3.171875 -1.84375 C 1.816406 -3.34375 1.140625 -5.488281 1.140625 -8.28125 L 1.140625 -10.390625 L 6.25 -10.390625 L 6.25 -7.9375 C 6.25 -6.6875 6.503906 -5.8125 7.015625 -5.3125 C 7.523438 -4.820312 8.207031 -4.578125 9.0625 -4.578125 C 9.914062 -4.578125 10.597656 -4.820312 11.109375 -5.3125 C 11.617188 -5.8125 11.875 -6.6875 11.875 -7.9375 C 11.875 -9.113281 11.609375 -10.15625 11.078125 -11.0625 C 10.554688 -11.96875 9.898438 -12.820312 9.109375 -13.625 C 8.328125 -14.425781 7.484375 -15.226562 6.578125 -16.03125 C 5.671875 -16.84375 4.820312 -17.722656 4.03125 -18.671875 C 3.25 -19.617188 2.59375 -20.703125 2.0625 -21.921875 C 1.539062 -23.140625 1.28125 -24.566406 1.28125 -26.203125 Z M 1.28125 -26.203125 "/></g></g></g><g fill="#5c964a" fill-opacity="1"><g transform="translate(135.585958, 301.087107)"><g><path d="M 7.390625 0 L 1.96875 0 L 1.96875 -34.484375 L 7.390625 -34.484375 L 7.390625 -19.703125 L 13.546875 -19.703125 L 13.546875 -34.484375 L 19.0625 -34.484375 L 19.0625 0 L 13.546875 0 L 13.546875 -14.78125 L 7.390625 -14.78125 Z M 7.390625 0 "/></g></g></g><g fill="#5c964a" fill-opacity="1"><g transform="translate(161.992547, 301.087107)"><g><path d="M 19.515625 0 L 14.046875 0 L 13.109375 -6.25 L 6.453125 -6.25 L 5.515625 0 L 0.546875 0 L 6.0625 -34.484375 L 13.984375 -34.484375 Z M 7.140625 -10.9375 L 12.359375 -10.9375 L 9.75 -28.375 Z M 7.140625 -10.9375 "/></g></g></g><g fill="#5c964a" fill-opacity="1"><g transform="translate(187.413857, 301.087107)"><g/></g></g><g fill="#5c964a" fill-opacity="1"><g transform="translate(200.420682, 301.087107)"><g><path d="M 19.515625 0 L 14.046875 0 L 13.109375 -6.25 L 6.453125 -6.25 L 5.515625 0 L 0.546875 0 L 6.0625 -34.484375 L 13.984375 -34.484375 Z M 7.140625 -10.9375 L 12.359375 -10.9375 L 9.75 -28.375 Z M 7.140625 -10.9375 "/></g></g></g><g fill="#5c964a" fill-opacity="1"><g transform="translate(225.841978, 301.087107)"><g><path d="M 6.796875 -24.984375 L 6.796875 0 L 1.921875 0 L 1.921875 -34.484375 L 8.71875 -34.484375 L 14.28125 -13.84375 L 14.28125 -34.484375 L 19.109375 -34.484375 L 19.109375 0 L 13.546875 0 Z M 6.796875 -24.984375 "/></g></g></g><g fill="#5c964a" fill-opacity="1"><g transform="translate(252.248558, 301.087107)"><g><path d="M 7.140625 -34.484375 L 7.140625 -7.875 C 7.140625 -6.632812 7.394531 -5.765625 7.90625 -5.265625 C 8.414062 -4.773438 9.097656 -4.53125 9.953125 -4.53125 C 10.804688 -4.53125 11.488281 -4.773438 12 -5.265625 C 12.507812 -5.765625 12.765625 -6.632812 12.765625 -7.875 L 12.765625 -34.484375 L 17.890625 -34.484375 L 17.890625 -8.234375 C 17.890625 -5.441406 17.207031 -3.296875 15.84375 -1.796875 C 14.476562 -0.304688 12.460938 0.4375 9.796875 0.4375 C 7.140625 0.4375 5.128906 -0.304688 3.765625 -1.796875 C 2.398438 -3.296875 1.71875 -5.441406 1.71875 -8.234375 L 1.71875 -34.484375 Z M 7.140625 -34.484375 "/></g></g></g><g fill="#5c964a" fill-opacity="1"><g transform="translate(277.22648, 301.087107)"><g><path d="M 1.96875 -34.484375 L 10.546875 -34.484375 C 13.265625 -34.484375 15.289062 -33.757812 16.625 -32.3125 C 17.957031 -30.875 18.625 -28.757812 18.625 -25.96875 L 18.625 -8.515625 C 18.625 -5.722656 17.957031 -3.601562 16.625 -2.15625 C 15.289062 -0.71875 13.265625 0 10.546875 0 L 1.96875 0 Z M 7.390625 -29.5625 L 7.390625 -4.921875 L 10.4375 -4.921875 C 11.289062 -4.921875 11.960938 -5.164062 12.453125 -5.65625 C 12.953125 -6.15625 13.203125 -7.03125 13.203125 -8.28125 L 13.203125 -26.203125 C 13.203125 -27.453125 12.953125 -28.320312 12.453125 -28.8125 C 11.960938 -29.3125 11.289062 -29.5625 10.4375 -29.5625 Z M 7.390625 -29.5625 "/></g></g></g><g fill="#5c964a" fill-opacity="1"><g transform="translate(302.697059, 301.087107)"><g><path d="M 19.515625 0 L 14.046875 0 L 13.109375 -6.25 L 6.453125 -6.25 L 5.515625 0 L 0.546875 0 L 6.0625 -34.484375 L 13.984375 -34.484375 Z M 7.140625 -10.9375 L 12.359375 -10.9375 L 9.75 -28.375 Z M 7.140625 -10.9375 "/></g></g></g><g fill="#5c964a" fill-opacity="1"><g transform="translate(328.118355, 301.087107)"><g><path d="M 6.796875 -24.984375 L 6.796875 0 L 1.921875 0 L 1.921875 -34.484375 L 8.71875 -34.484375 L 14.28125 -13.84375 L 14.28125 -34.484375 L 19.109375 -34.484375 L 19.109375 0 L 13.546875 0 Z M 6.796875 -24.984375 "/></g></g></g><g fill="#a8cf45" fill-opacity="1"><g transform="translate(92.746814, 336.634306)"><g><path d="M 2.953125 -10.875 L 2.953125 0 L 0.84375 0 L 0.84375 -15 L 3.796875 -15 L 6.21875 -6.03125 L 6.21875 -15 L 8.3125 -15 L 8.3125 0 L 5.890625 0 Z M 2.953125 -10.875 "/></g></g></g><g fill="#a8cf45" fill-opacity="1"><g transform="translate(104.404447, 336.634306)"><g><path d="M 3.21875 -8.6875 L 6.453125 -8.6875 L 6.453125 -6.53125 L 3.21875 -6.53125 L 3.21875 -2.140625 L 7.28125 -2.140625 L 7.28125 0 L 0.859375 0 L 0.859375 -15 L 7.28125 -15 L 7.28125 -12.859375 L 3.21875 -12.859375 Z M 3.21875 -8.6875 "/></g></g></g><g fill="#a8cf45" fill-opacity="1"><g transform="translate(114.797994, 336.634306)"><g><path d="M 4.421875 -2.765625 L 6.21875 -15 L 8.375 -15 L 6.0625 0 L 2.546875 0 L 0.234375 -15 L 2.609375 -15 Z M 4.421875 -2.765625 "/></g></g></g><g fill="#a8cf45" fill-opacity="1"><g transform="translate(125.919994, 336.634306)"><g><path d="M 3.21875 -8.6875 L 6.453125 -8.6875 L 6.453125 -6.53125 L 3.21875 -6.53125 L 3.21875 -2.140625 L 7.28125 -2.140625 L 7.28125 0 L 0.859375 0 L 0.859375 -15 L 7.28125 -15 L 7.28125 -12.859375 L 3.21875 -12.859375 Z M 3.21875 -8.6875 "/></g></g></g><g fill="#a8cf45" fill-opacity="1"><g transform="translate(136.313539, 336.634306)"><g><path d="M 5.78125 0 C 5.757812 -0.101562 5.734375 -0.195312 5.703125 -0.28125 C 5.671875 -0.363281 5.644531 -0.46875 5.625 -0.59375 C 5.601562 -0.726562 5.585938 -0.894531 5.578125 -1.09375 C 5.578125 -1.289062 5.578125 -1.539062 5.578125 -1.84375 L 5.578125 -4.203125 C 5.578125 -4.898438 5.453125 -5.390625 5.203125 -5.671875 C 4.960938 -5.960938 4.570312 -6.109375 4.03125 -6.109375 L 3.21875 -6.109375 L 3.21875 0 L 0.859375 0 L 0.859375 -15 L 4.421875 -15 C 5.648438 -15 6.535156 -14.710938 7.078125 -14.140625 C 7.628906 -13.578125 7.90625 -12.71875 7.90625 -11.5625 L 7.90625 -10.375 C 7.90625 -8.832031 7.390625 -7.816406 6.359375 -7.328125 C 6.960938 -7.085938 7.375 -6.691406 7.59375 -6.140625 C 7.820312 -5.585938 7.9375 -4.921875 7.9375 -4.140625 L 7.9375 -1.828125 C 7.9375 -1.453125 7.945312 -1.125 7.96875 -0.84375 C 8 -0.5625 8.070312 -0.28125 8.1875 0 Z M 3.21875 -12.859375 L 3.21875 -8.25 L 4.140625 -8.25 C 4.578125 -8.25 4.921875 -8.363281 5.171875 -8.59375 C 5.421875 -8.820312 5.546875 -9.238281 5.546875 -9.84375 L 5.546875 -11.3125 C 5.546875 -11.863281 5.445312 -12.257812 5.25 -12.5 C 5.0625 -12.738281 4.765625 -12.859375 4.359375 -12.859375 Z M 3.21875 -12.859375 "/></g></g></g><g fill="#a8cf45" fill-opacity="1"><g transform="translate(147.435536, 336.634306)"><g/></g></g><g fill="#a8cf45" fill-opacity="1"><g transform="translate(153.26549, 336.634306)"><g><path d="M 0.5625 -11.40625 C 0.5625 -12.625 0.847656 -13.554688 1.421875 -14.203125 C 2.003906 -14.847656 2.875 -15.171875 4.03125 -15.171875 C 5.1875 -15.171875 6.050781 -14.847656 6.625 -14.203125 C 7.207031 -13.554688 7.5 -12.625 7.5 -11.40625 L 7.5 -10.828125 L 5.28125 -10.828125 L 5.28125 -11.5625 C 5.28125 -12.101562 5.175781 -12.484375 4.96875 -12.703125 C 4.757812 -12.921875 4.46875 -13.03125 4.09375 -13.03125 C 3.71875 -13.03125 3.425781 -12.921875 3.21875 -12.703125 C 3.019531 -12.484375 2.921875 -12.101562 2.921875 -11.5625 C 2.921875 -11.039062 3.03125 -10.582031 3.25 -10.1875 C 3.476562 -9.800781 3.765625 -9.429688 4.109375 -9.078125 C 4.453125 -8.722656 4.820312 -8.367188 5.21875 -8.015625 C 5.613281 -7.671875 5.984375 -7.289062 6.328125 -6.875 C 6.671875 -6.46875 6.957031 -6 7.1875 -5.46875 C 7.414062 -4.9375 7.53125 -4.3125 7.53125 -3.59375 C 7.53125 -2.382812 7.234375 -1.453125 6.640625 -0.796875 C 6.046875 -0.148438 5.171875 0.171875 4.015625 0.171875 C 2.847656 0.171875 1.96875 -0.148438 1.375 -0.796875 C 0.789062 -1.453125 0.5 -2.382812 0.5 -3.59375 L 0.5 -4.625 L 2.71875 -4.625 L 2.71875 -3.453125 C 2.71875 -2.910156 2.828125 -2.53125 3.046875 -2.3125 C 3.273438 -2.101562 3.570312 -2 3.9375 -2 C 4.3125 -2 4.609375 -2.101562 4.828125 -2.3125 C 5.054688 -2.53125 5.171875 -2.910156 5.171875 -3.453125 C 5.171875 -3.960938 5.054688 -4.414062 4.828125 -4.8125 C 4.597656 -5.207031 4.3125 -5.578125 3.96875 -5.921875 C 3.625 -6.273438 3.253906 -6.625 2.859375 -6.96875 C 2.460938 -7.320312 2.09375 -7.707031 1.75 -8.125 C 1.414062 -8.539062 1.132812 -9.007812 0.90625 -9.53125 C 0.675781 -10.0625 0.5625 -10.6875 0.5625 -11.40625 Z M 0.5625 -11.40625 "/></g></g></g><g fill="#a8cf45" fill-opacity="1"><g transform="translate(163.787585, 336.634306)"><g><path d="M 0.21875 -15 L 7.5 -15 L 7.5 -12.859375 L 5.03125 -12.859375 L 5.03125 0 L 2.671875 0 L 2.671875 -12.859375 L 0.21875 -12.859375 Z M 0.21875 -15 "/></g></g></g><g fill="#a8cf45" fill-opacity="1"><g transform="translate(174.009729, 336.634306)"><g><path d="M 3.015625 -3.453125 C 3.015625 -2.910156 3.125 -2.523438 3.34375 -2.296875 C 3.570312 -2.078125 3.875 -1.96875 4.25 -1.96875 C 4.613281 -1.96875 4.90625 -2.078125 5.125 -2.296875 C 5.351562 -2.523438 5.46875 -2.910156 5.46875 -3.453125 L 5.46875 -11.5625 C 5.46875 -12.101562 5.351562 -12.484375 5.125 -12.703125 C 4.90625 -12.921875 4.613281 -13.03125 4.25 -13.03125 C 3.875 -13.03125 3.570312 -12.921875 3.34375 -12.703125 C 3.125 -12.484375 3.015625 -12.101562 3.015625 -11.5625 Z M 0.671875 -11.40625 C 0.671875 -12.625 0.976562 -13.554688 1.59375 -14.203125 C 2.207031 -14.847656 3.09375 -15.171875 4.25 -15.171875 C 5.40625 -15.171875 6.289062 -14.847656 6.90625 -14.203125 C 7.519531 -13.554688 7.828125 -12.625 7.828125 -11.40625 L 7.828125 -3.59375 C 7.828125 -2.382812 7.519531 -1.453125 6.90625 -0.796875 C 6.289062 -0.148438 5.40625 0.171875 4.25 0.171875 C 3.09375 0.171875 2.207031 -0.148438 1.59375 -0.796875 C 0.976562 -1.453125 0.671875 -2.382812 0.671875 -3.59375 Z M 0.671875 -11.40625 "/></g></g></g><g fill="#a8cf45" fill-opacity="1"><g transform="translate(185.003176, 336.634306)"><g><path d="M 4.328125 -15 C 5.515625 -15 6.394531 -14.6875 6.96875 -14.0625 C 7.550781 -13.4375 7.84375 -12.515625 7.84375 -11.296875 L 7.84375 -9.34375 C 7.84375 -8.132812 7.550781 -7.210938 6.96875 -6.578125 C 6.394531 -5.953125 5.515625 -5.640625 4.328125 -5.640625 L 3.21875 -5.640625 L 3.21875 0 L 0.859375 0 L 0.859375 -15 Z M 3.21875 -12.859375 L 3.21875 -7.78125 L 4.328125 -7.78125 C 4.703125 -7.78125 4.988281 -7.878906 5.1875 -8.078125 C 5.382812 -8.273438 5.484375 -8.648438 5.484375 -9.203125 L 5.484375 -11.453125 C 5.484375 -11.992188 5.382812 -12.363281 5.1875 -12.5625 C 4.988281 -12.757812 4.703125 -12.859375 4.328125 -12.859375 Z M 3.21875 -12.859375 "/></g></g></g><g fill="#a8cf45" fill-opacity="1"><g transform="translate(195.589539, 336.634306)"><g/></g></g><g fill="#a8cf45" fill-opacity="1"><g transform="translate(201.419493, 336.634306)"><g><path d="M 0.859375 -15 L 3.21875 -15 L 3.21875 -2.140625 L 7.09375 -2.140625 L 7.09375 0 L 0.859375 0 Z M 0.859375 -15 "/></g></g></g><g fill="#a8cf45" fill-opacity="1"><g transform="translate(211.234554, 336.634306)"><g><path d="M 3.21875 -8.6875 L 6.453125 -8.6875 L 6.453125 -6.53125 L 3.21875 -6.53125 L 3.21875 -2.140625 L 7.28125 -2.140625 L 7.28125 0 L 0.859375 0 L 0.859375 -15 L 7.28125 -15 L 7.28125 -12.859375 L 3.21875 -12.859375 Z M 3.21875 -8.6875 "/></g></g></g><g fill="#a8cf45" fill-opacity="1"><g transform="translate(221.628105, 336.634306)"><g><path d="M 8.484375 0 L 6.109375 0 L 5.703125 -2.71875 L 2.8125 -2.71875 L 2.40625 0 L 0.234375 0 L 2.640625 -15 L 6.09375 -15 Z M 3.109375 -4.765625 L 5.375 -4.765625 L 4.25 -12.34375 Z M 3.109375 -4.765625 "/></g></g></g><g fill="#a8cf45" fill-opacity="1"><g transform="translate(232.857235, 336.634306)"><g><path d="M 5.78125 0 C 5.757812 -0.101562 5.734375 -0.195312 5.703125 -0.28125 C 5.671875 -0.363281 5.644531 -0.46875 5.625 -0.59375 C 5.601562 -0.726562 5.585938 -0.894531 5.578125 -1.09375 C 5.578125 -1.289062 5.578125 -1.539062 5.578125 -1.84375 L 5.578125 -4.203125 C 5.578125 -4.898438 5.453125 -5.390625 5.203125 -5.671875 C 4.960938 -5.960938 4.570312 -6.109375 4.03125 -6.109375 L 3.21875 -6.109375 L 3.21875 0 L 0.859375 0 L 0.859375 -15 L 4.421875 -15 C 5.648438 -15 6.535156 -14.710938 7.078125 -14.140625 C 7.628906 -13.578125 7.90625 -12.71875 7.90625 -11.5625 L 7.90625 -10.375 C 7.90625 -8.832031 7.390625 -7.816406 6.359375 -7.328125 C 6.960938 -7.085938 7.375 -6.691406 7.59375 -6.140625 C 7.820312 -5.585938 7.9375 -4.921875 7.9375 -4.140625 L 7.9375 -1.828125 C 7.9375 -1.453125 7.945312 -1.125 7.96875 -0.84375 C 8 -0.5625 8.070312 -0.28125 8.1875 0 Z M 3.21875 -12.859375 L 3.21875 -8.25 L 4.140625 -8.25 C 4.578125 -8.25 4.921875 -8.363281 5.171875 -8.59375 C 5.421875 -8.820312 5.546875 -9.238281 5.546875 -9.84375 L 5.546875 -11.3125 C 5.546875 -11.863281 5.445312 -12.257812 5.25 -12.5 C 5.0625 -12.738281 4.765625 -12.859375 4.359375 -12.859375 Z M 3.21875 -12.859375 "/></g></g></g><g fill="#a8cf45" fill-opacity="1"><g transform="translate(243.979232, 336.634306)"><g><path d="M 2.953125 -10.875 L 2.953125 0 L 0.84375 0 L 0.84375 -15 L 3.796875 -15 L 6.21875 -6.03125 L 6.21875 -15 L 8.3125 -15 L 8.3125 0 L 5.890625 0 Z M 2.953125 -10.875 "/></g></g></g><g fill="#a8cf45" fill-opacity="1"><g transform="translate(255.636864, 336.634306)"><g><path d="M 0.859375 -15 L 3.21875 -15 L 3.21875 0 L 0.859375 0 Z M 0.859375 -15 "/></g></g></g><g fill="#a8cf45" fill-opacity="1"><g transform="translate(262.216702, 336.634306)"><g><path d="M 2.953125 -10.875 L 2.953125 0 L 0.84375 0 L 0.84375 -15 L 3.796875 -15 L 6.21875 -6.03125 L 6.21875 -15 L 8.3125 -15 L 8.3125 0 L 5.890625 0 Z M 2.953125 -10.875 "/></g></g></g><g fill="#a8cf45" fill-opacity="1"><g transform="translate(273.874333, 336.634306)"><g><path d="M 4.390625 -8.359375 L 7.703125 -8.359375 L 7.703125 -3.59375 C 7.703125 -2.382812 7.40625 -1.453125 6.8125 -0.796875 C 6.21875 -0.148438 5.34375 0.171875 4.1875 0.171875 C 3.019531 0.171875 2.140625 -0.148438 1.546875 -0.796875 C 0.960938 -1.453125 0.671875 -2.382812 0.671875 -3.59375 L 0.671875 -11.40625 C 0.671875 -12.625 0.960938 -13.554688 1.546875 -14.203125 C 2.140625 -14.847656 3.019531 -15.171875 4.1875 -15.171875 C 5.34375 -15.171875 6.21875 -14.847656 6.8125 -14.203125 C 7.40625 -13.554688 7.703125 -12.625 7.703125 -11.40625 L 7.703125 -9.953125 L 5.46875 -9.953125 L 5.46875 -11.5625 C 5.46875 -12.101562 5.351562 -12.484375 5.125 -12.703125 C 4.90625 -12.921875 4.613281 -13.03125 4.25 -13.03125 C 3.875 -13.03125 3.570312 -12.921875 3.34375 -12.703125 C 3.125 -12.484375 3.015625 -12.101562 3.015625 -11.5625 L 3.015625 -3.453125 C 3.015625 -2.910156 3.125 -2.53125 3.34375 -2.3125 C 3.570312 -2.101562 3.875 -2 4.25 -2 C 4.613281 -2 4.90625 -2.101562 5.125 -2.3125 C 5.351562 -2.53125 5.46875 -2.910156 5.46875 -3.453125 L 5.46875 -6.21875 L 4.390625 -6.21875 Z M 4.390625 -8.359375 "/></g></g></g></svg>