<svg xmlns="http://www.w3.org/2000/svg" xmlns:xlink="http://www.w3.org/1999/xlink" width="500" zoomAndPan="magnify" viewBox="0 0 375 374.999991" height="500" preserveAspectRatio="xMidYMid meet" version="1.0"><defs><g/><clipPath id="id1"><path d="M 112.5 37.5 L 262.5 37.5 L 262.5 187.5 L 112.5 187.5 Z M 112.5 37.5 " clip-rule="nonzero"/></clipPath><clipPath id="id2"><path d="M 145 91 L 262.5 91 L 262.5 186 L 145 186 Z M 145 91 " clip-rule="nonzero"/></clipPath></defs><g clip-path="url(#id1)"><path fill="#a8cf45" d="M 262.542969 112.53125 C 262.542969 145.519531 241.257812 173.527344 211.667969 183.566406 C 209.199219 184.410156 206.671875 185.125 204.097656 185.707031 C 203.210938 185.90625 202.320312 186.09375 201.425781 186.257812 C 201.347656 186.269531 201.269531 186.289062 201.191406 186.300781 C 196.761719 187.121094 192.191406 187.542969 187.53125 187.542969 C 184.601562 187.542969 181.707031 187.375 178.867188 187.046875 C 141.519531 182.753906 112.519531 151.03125 112.519531 112.53125 C 112.519531 71.101562 146.101562 37.519531 187.53125 37.519531 C 218.363281 37.519531 244.84375 56.113281 256.375 82.703125 C 256.535156 83.078125 256.695312 83.445312 256.851562 83.820312 C 258.371094 87.496094 259.617188 91.328125 260.546875 95.277344 C 260.996094 97.183594 261.371094 99.117188 261.667969 101.078125 C 261.773438 101.78125 261.875 102.496094 261.964844 103.214844 C 262.34375 106.261719 262.542969 109.375 262.542969 112.53125 Z M 262.542969 112.53125 " fill-opacity="1" fill-rule="nonzero"/></g><g clip-path="url(#id2)"><path fill="#5c964a" d="M 262.542969 112.53125 C 262.542969 145.519531 241.257812 173.527344 211.667969 183.566406 C 209.199219 184.410156 206.671875 185.125 204.097656 185.707031 L 145.019531 144.4375 L 243.953125 91.875 L 261.964844 103.214844 C 262.34375 106.261719 262.542969 109.375 262.542969 112.53125 Z M 262.542969 112.53125 " fill-opacity="1" fill-rule="nonzero"/></g><path fill="#d7f9ff" d="M 145.019531 93.027344 L 145.019531 144.4375 C 145.019531 146.710938 163.355469 148.554688 185.972656 148.554688 C 208.589844 148.554688 226.925781 146.710938 226.925781 144.4375 L 226.925781 93.027344 Z M 145.019531 93.027344 " fill-opacity="1" fill-rule="nonzero"/><path fill="#008037" d="M 244.171875 97.304688 L 186.929688 117.621094 C 186.3125 117.839844 185.640625 117.839844 185.027344 117.621094 L 127.785156 97.304688 C 125.152344 96.371094 125.300781 92.59375 128.003906 91.875 L 185.25 76.601562 C 185.730469 76.46875 186.234375 76.46875 186.714844 76.601562 L 243.960938 91.875 C 246.652344 92.59375 246.804688 96.367188 244.171875 97.304688 Z M 244.171875 97.304688 " fill-opacity="1" fill-rule="nonzero"/><path fill="#e43626" d="M 227.164062 93.886719 C 231.542969 93.222656 236.128906 94.65625 238.96875 98.164062 C 242.148438 102.09375 240.703125 107.46875 239.832031 111.988281 C 238.121094 120.871094 238.371094 129.402344 241.816406 137.859375 C 242.242188 138.90625 243.964844 138.449219 243.53125 137.386719 C 241.261719 131.808594 240.144531 125.890625 240.484375 119.859375 C 240.8125 114.015625 243.28125 108.109375 242.597656 102.21875 C 241.738281 94.753906 233.335938 91.160156 226.683594 92.171875 C 225.5625 92.335938 226.042969 94.054688 227.164062 93.886719 Z M 227.164062 93.886719 " fill-opacity="1" fill-rule="nonzero"/><path fill="#e43626" d="M 239.648438 145.890625 C 239.800781 145.589844 240.082031 144.636719 240.335938 144.414062 C 240.476562 144.710938 240.507812 145.695312 240.574219 146.023438 C 240.996094 146.0625 242.59375 146.089844 242.96875 146.082031 C 242.960938 145.753906 242.917969 144.863281 242.914062 144.539062 C 243.203125 144.851562 243.53125 145.738281 243.824219 146.050781 C 244.761719 145.976562 245.707031 145.820312 246.632812 145.605469 C 246.621094 145.523438 246.289062 143.847656 246.277344 143.835938 C 246.378906 143.890625 247.019531 145.132812 247.15625 145.476562 C 247.839844 145.296875 248.515625 145.078125 249.175781 144.828125 C 248.335938 142.898438 247.566406 140.9375 246.519531 139.097656 C 245.914062 138.03125 245.277344 136.96875 244.476562 136.042969 C 243.78125 135.242188 242.722656 134.175781 241.566406 134.265625 C 240.824219 134.320312 240.230469 134.894531 239.820312 135.527344 C 239.808594 135.550781 239.789062 135.574219 239.777344 135.589844 C 238.878906 137.015625 238.613281 138.734375 238.246094 140.34375 C 238.160156 140.707031 237.597656 143.917969 237.382812 145.320312 C 238.101562 145.570312 238.863281 145.761719 239.648438 145.890625 Z M 239.648438 145.890625 " fill-opacity="1" fill-rule="nonzero"/><g fill="#5c964a" fill-opacity="1"><g transform="translate(65.397235, 242.639149)"><g><path d="M 1.03125 -21.21875 C 1.03125 -23.476562 1.566406 -25.210938 2.640625 -26.421875 C 3.722656 -27.640625 5.34375 -28.25 7.5 -28.25 C 9.65625 -28.25 11.269531 -27.640625 12.34375 -26.421875 C 13.425781 -25.210938 13.96875 -23.476562 13.96875 -21.21875 L 13.96875 -20.34375 L 9.8125 -20.34375 L 9.8125 -21.5 C 9.8125 -22.507812 9.617188 -23.21875 9.234375 -23.625 C 8.847656 -24.039062 8.3125 -24.25 7.625 -24.25 C 6.925781 -24.25 6.382812 -24.039062 6 -23.625 C 5.613281 -23.21875 5.421875 -22.507812 5.421875 -21.5 C 5.421875 -20.539062 5.632812 -19.695312 6.0625 -18.96875 C 6.488281 -18.238281 7.019531 -17.546875 7.65625 -16.890625 C 8.289062 -16.242188 8.972656 -15.59375 9.703125 -14.9375 C 10.441406 -14.289062 11.128906 -13.578125 11.765625 -12.796875 C 12.398438 -12.023438 12.929688 -11.148438 13.359375 -10.171875 C 13.785156 -9.191406 14 -8.035156 14 -6.703125 C 14 -4.441406 13.445312 -2.707031 12.34375 -1.5 C 11.238281 -0.289062 9.609375 0.3125 7.453125 0.3125 C 5.304688 0.3125 3.679688 -0.289062 2.578125 -1.5 C 1.472656 -2.707031 0.921875 -4.441406 0.921875 -6.703125 L 0.921875 -8.421875 L 5.0625 -8.421875 L 5.0625 -6.421875 C 5.0625 -5.410156 5.265625 -4.703125 5.671875 -4.296875 C 6.085938 -3.898438 6.644531 -3.703125 7.34375 -3.703125 C 8.03125 -3.703125 8.578125 -3.898438 8.984375 -4.296875 C 9.398438 -4.703125 9.609375 -5.410156 9.609375 -6.421875 C 9.609375 -7.378906 9.394531 -8.222656 8.96875 -8.953125 C 8.550781 -9.679688 8.019531 -10.367188 7.375 -11.015625 C 6.738281 -11.671875 6.054688 -12.328125 5.328125 -12.984375 C 4.597656 -13.640625 3.910156 -14.351562 3.265625 -15.125 C 2.628906 -15.894531 2.097656 -16.769531 1.671875 -17.75 C 1.242188 -18.738281 1.03125 -19.894531 1.03125 -21.21875 Z M 1.03125 -21.21875 "/></g></g></g><g fill="#5c964a" fill-opacity="1"><g transform="translate(84.659683, 242.639149)"><g><path d="M 1.59375 -27.921875 L 5.984375 -27.921875 L 5.984375 0 L 1.59375 0 Z M 1.59375 -27.921875 "/></g></g></g><g fill="#5c964a" fill-opacity="1"><g transform="translate(96.584421, 242.639149)"><g><path d="M 7.34375 -11.125 L 5.984375 -8.578125 L 5.984375 0 L 1.59375 0 L 1.59375 -27.921875 L 5.984375 -27.921875 L 5.984375 -15.75 L 11.734375 -27.921875 L 16.109375 -27.921875 L 10.015625 -15.484375 L 16.109375 0 L 11.609375 0 Z M 7.34375 -11.125 "/></g></g></g><g fill="#5c964a" fill-opacity="1"><g transform="translate(117.442027, 242.639149)"><g><path d="M 1.03125 -21.21875 C 1.03125 -23.476562 1.566406 -25.210938 2.640625 -26.421875 C 3.722656 -27.640625 5.34375 -28.25 7.5 -28.25 C 9.65625 -28.25 11.269531 -27.640625 12.34375 -26.421875 C 13.425781 -25.210938 13.96875 -23.476562 13.96875 -21.21875 L 13.96875 -20.34375 L 9.8125 -20.34375 L 9.8125 -21.5 C 9.8125 -22.507812 9.617188 -23.21875 9.234375 -23.625 C 8.847656 -24.039062 8.3125 -24.25 7.625 -24.25 C 6.925781 -24.25 6.382812 -24.039062 6 -23.625 C 5.613281 -23.21875 5.421875 -22.507812 5.421875 -21.5 C 5.421875 -20.539062 5.632812 -19.695312 6.0625 -18.96875 C 6.488281 -18.238281 7.019531 -17.546875 7.65625 -16.890625 C 8.289062 -16.242188 8.972656 -15.59375 9.703125 -14.9375 C 10.441406 -14.289062 11.128906 -13.578125 11.765625 -12.796875 C 12.398438 -12.023438 12.929688 -11.148438 13.359375 -10.171875 C 13.785156 -9.191406 14 -8.035156 14 -6.703125 C 14 -4.441406 13.445312 -2.707031 12.34375 -1.5 C 11.238281 -0.289062 9.609375 0.3125 7.453125 0.3125 C 5.304688 0.3125 3.679688 -0.289062 2.578125 -1.5 C 1.472656 -2.707031 0.921875 -4.441406 0.921875 -6.703125 L 0.921875 -8.421875 L 5.0625 -8.421875 L 5.0625 -6.421875 C 5.0625 -5.410156 5.265625 -4.703125 5.671875 -4.296875 C 6.085938 -3.898438 6.644531 -3.703125 7.34375 -3.703125 C 8.03125 -3.703125 8.578125 -3.898438 8.984375 -4.296875 C 9.398438 -4.703125 9.609375 -5.410156 9.609375 -6.421875 C 9.609375 -7.378906 9.394531 -8.222656 8.96875 -8.953125 C 8.550781 -9.679688 8.019531 -10.367188 7.375 -11.015625 C 6.738281 -11.671875 6.054688 -12.328125 5.328125 -12.984375 C 4.597656 -13.640625 3.910156 -14.351562 3.265625 -15.125 C 2.628906 -15.894531 2.097656 -16.769531 1.671875 -17.75 C 1.242188 -18.738281 1.03125 -19.894531 1.03125 -21.21875 Z M 1.03125 -21.21875 "/></g></g></g><g fill="#5c964a" fill-opacity="1"><g transform="translate(136.704475, 242.639149)"><g><path d="M 5.984375 0 L 1.59375 0 L 1.59375 -27.921875 L 5.984375 -27.921875 L 5.984375 -15.953125 L 10.96875 -15.953125 L 10.96875 -27.921875 L 15.4375 -27.921875 L 15.4375 0 L 10.96875 0 L 10.96875 -11.96875 L 5.984375 -11.96875 Z M 5.984375 0 "/></g></g></g><g fill="#5c964a" fill-opacity="1"><g transform="translate(158.080509, 242.639149)"><g><path d="M 15.796875 0 L 11.375 0 L 10.609375 -5.0625 L 5.21875 -5.0625 L 4.46875 0 L 0.4375 0 L 4.90625 -27.921875 L 11.328125 -27.921875 Z M 5.78125 -8.859375 L 10.015625 -8.859375 L 7.890625 -22.984375 Z M 5.78125 -8.859375 "/></g></g></g><g fill="#5c964a" fill-opacity="1"><g transform="translate(178.658959, 242.639149)"><g/></g></g><g fill="#5c964a" fill-opacity="1"><g transform="translate(189.187935, 242.639149)"><g><path d="M 15.796875 0 L 11.375 0 L 10.609375 -5.0625 L 5.21875 -5.0625 L 4.46875 0 L 0.4375 0 L 4.90625 -27.921875 L 11.328125 -27.921875 Z M 5.78125 -8.859375 L 10.015625 -8.859375 L 7.890625 -22.984375 Z M 5.78125 -8.859375 "/></g></g></g><g fill="#5c964a" fill-opacity="1"><g transform="translate(209.766391, 242.639149)"><g><path d="M 5.5 -20.21875 L 5.5 0 L 1.5625 0 L 1.5625 -27.921875 L 7.0625 -27.921875 L 11.5625 -11.203125 L 11.5625 -27.921875 L 15.484375 -27.921875 L 15.484375 0 L 10.96875 0 Z M 5.5 -20.21875 "/></g></g></g><g fill="#5c964a" fill-opacity="1"><g transform="translate(231.142419, 242.639149)"><g><path d="M 5.78125 -27.921875 L 5.78125 -6.375 C 5.78125 -5.363281 5.984375 -4.660156 6.390625 -4.265625 C 6.804688 -3.867188 7.363281 -3.671875 8.0625 -3.671875 C 8.75 -3.671875 9.296875 -3.867188 9.703125 -4.265625 C 10.117188 -4.660156 10.328125 -5.363281 10.328125 -6.375 L 10.328125 -27.921875 L 14.484375 -27.921875 L 14.484375 -6.65625 C 14.484375 -4.394531 13.929688 -2.660156 12.828125 -1.453125 C 11.722656 -0.242188 10.09375 0.359375 7.9375 0.359375 C 5.78125 0.359375 4.148438 -0.242188 3.046875 -1.453125 C 1.941406 -2.660156 1.390625 -4.394531 1.390625 -6.65625 L 1.390625 -27.921875 Z M 5.78125 -27.921875 "/></g></g></g><g fill="#5c964a" fill-opacity="1"><g transform="translate(251.361953, 242.639149)"><g><path d="M 1.59375 -27.921875 L 8.53125 -27.921875 C 10.738281 -27.921875 12.378906 -27.332031 13.453125 -26.15625 C 14.535156 -24.988281 15.078125 -23.273438 15.078125 -21.015625 L 15.078125 -6.90625 C 15.078125 -4.644531 14.535156 -2.925781 13.453125 -1.75 C 12.378906 -0.582031 10.738281 0 8.53125 0 L 1.59375 0 Z M 5.984375 -23.9375 L 5.984375 -3.984375 L 8.453125 -3.984375 C 9.148438 -3.984375 9.695312 -4.179688 10.09375 -4.578125 C 10.488281 -4.984375 10.6875 -5.691406 10.6875 -6.703125 L 10.6875 -21.21875 C 10.6875 -22.226562 10.488281 -22.929688 10.09375 -23.328125 C 9.695312 -23.734375 9.148438 -23.9375 8.453125 -23.9375 Z M 5.984375 -23.9375 "/></g></g></g><g fill="#5c964a" fill-opacity="1"><g transform="translate(271.980291, 242.639149)"><g><path d="M 15.796875 0 L 11.375 0 L 10.609375 -5.0625 L 5.21875 -5.0625 L 4.46875 0 L 0.4375 0 L 4.90625 -27.921875 L 11.328125 -27.921875 Z M 5.78125 -8.859375 L 10.015625 -8.859375 L 7.890625 -22.984375 Z M 5.78125 -8.859375 "/></g></g></g><g fill="#5c964a" fill-opacity="1"><g transform="translate(292.558735, 242.639149)"><g><path d="M 5.5 -20.21875 L 5.5 0 L 1.5625 0 L 1.5625 -27.921875 L 7.0625 -27.921875 L 11.5625 -11.203125 L 11.5625 -27.921875 L 15.484375 -27.921875 L 15.484375 0 L 10.96875 0 Z M 5.5 -20.21875 "/></g></g></g><g fill="#a8cf45" fill-opacity="1"><g transform="translate(110.797656, 275.109152)"><g><path d="M 2.390625 -8.796875 L 2.390625 0 L 0.671875 0 L 0.671875 -12.15625 L 3.078125 -12.15625 L 5.03125 -4.875 L 5.03125 -12.15625 L 6.734375 -12.15625 L 6.734375 0 L 4.78125 0 Z M 2.390625 -8.796875 "/></g></g></g><g fill="#a8cf45" fill-opacity="1"><g transform="translate(120.234466, 275.109152)"><g><path d="M 2.609375 -7.03125 L 5.21875 -7.03125 L 5.21875 -5.296875 L 2.609375 -5.296875 L 2.609375 -1.734375 L 5.90625 -1.734375 L 5.90625 0 L 0.6875 0 L 0.6875 -12.15625 L 5.90625 -12.15625 L 5.90625 -10.421875 L 2.609375 -10.421875 Z M 2.609375 -7.03125 "/></g></g></g><g fill="#a8cf45" fill-opacity="1"><g transform="translate(128.648003, 275.109152)"><g><path d="M 3.578125 -2.234375 L 5.03125 -12.15625 L 6.78125 -12.15625 L 4.90625 0 L 2.0625 0 L 0.1875 -12.15625 L 2.125 -12.15625 Z M 3.578125 -2.234375 "/></g></g></g><g fill="#a8cf45" fill-opacity="1"><g transform="translate(137.651221, 275.109152)"><g><path d="M 2.609375 -7.03125 L 5.21875 -7.03125 L 5.21875 -5.296875 L 2.609375 -5.296875 L 2.609375 -1.734375 L 5.90625 -1.734375 L 5.90625 0 L 0.6875 0 L 0.6875 -12.15625 L 5.90625 -12.15625 L 5.90625 -10.421875 L 2.609375 -10.421875 Z M 2.609375 -7.03125 "/></g></g></g><g fill="#a8cf45" fill-opacity="1"><g transform="translate(146.064757, 275.109152)"><g><path d="M 4.6875 0 C 4.664062 -0.0820312 4.640625 -0.15625 4.609375 -0.21875 C 4.585938 -0.289062 4.566406 -0.378906 4.546875 -0.484375 C 4.535156 -0.585938 4.523438 -0.71875 4.515625 -0.875 C 4.515625 -1.039062 4.515625 -1.25 4.515625 -1.5 L 4.515625 -3.40625 C 4.515625 -3.96875 4.414062 -4.363281 4.21875 -4.59375 C 4.019531 -4.832031 3.703125 -4.953125 3.265625 -4.953125 L 2.609375 -4.953125 L 2.609375 0 L 0.6875 0 L 0.6875 -12.15625 L 3.578125 -12.15625 C 4.566406 -12.15625 5.285156 -11.921875 5.734375 -11.453125 C 6.179688 -10.992188 6.40625 -10.296875 6.40625 -9.359375 L 6.40625 -8.40625 C 6.40625 -7.15625 5.988281 -6.332031 5.15625 -5.9375 C 5.644531 -5.738281 5.976562 -5.414062 6.15625 -4.96875 C 6.332031 -4.53125 6.421875 -3.988281 6.421875 -3.34375 L 6.421875 -1.46875 C 6.421875 -1.175781 6.429688 -0.914062 6.453125 -0.6875 C 6.484375 -0.457031 6.539062 -0.226562 6.625 0 Z M 2.609375 -10.421875 L 2.609375 -6.6875 L 3.34375 -6.6875 C 3.707031 -6.6875 3.988281 -6.773438 4.1875 -6.953125 C 4.394531 -7.140625 4.5 -7.476562 4.5 -7.96875 L 4.5 -9.171875 C 4.5 -9.609375 4.421875 -9.925781 4.265625 -10.125 C 4.109375 -10.320312 3.863281 -10.421875 3.53125 -10.421875 Z M 2.609375 -10.421875 "/></g></g></g><g fill="#a8cf45" fill-opacity="1"><g transform="translate(155.067972, 275.109152)"><g/></g></g><g fill="#a8cf45" fill-opacity="1"><g transform="translate(159.787298, 275.109152)"><g><path d="M 0.453125 -9.234375 C 0.453125 -10.210938 0.6875 -10.96875 1.15625 -11.5 C 1.625 -12.03125 2.328125 -12.296875 3.265625 -12.296875 C 4.203125 -12.296875 4.90625 -12.03125 5.375 -11.5 C 5.84375 -10.96875 6.078125 -10.210938 6.078125 -9.234375 L 6.078125 -8.765625 L 4.265625 -8.765625 L 4.265625 -9.359375 C 4.265625 -9.796875 4.179688 -10.101562 4.015625 -10.28125 C 3.847656 -10.457031 3.613281 -10.546875 3.3125 -10.546875 C 3.007812 -10.546875 2.773438 -10.457031 2.609375 -10.28125 C 2.441406 -10.101562 2.359375 -9.796875 2.359375 -9.359375 C 2.359375 -8.941406 2.453125 -8.570312 2.640625 -8.25 C 2.828125 -7.9375 3.054688 -7.632812 3.328125 -7.34375 C 3.609375 -7.0625 3.90625 -6.78125 4.21875 -6.5 C 4.539062 -6.21875 4.835938 -5.90625 5.109375 -5.5625 C 5.390625 -5.226562 5.625 -4.847656 5.8125 -4.421875 C 6 -3.992188 6.09375 -3.492188 6.09375 -2.921875 C 6.09375 -1.929688 5.851562 -1.171875 5.375 -0.640625 C 4.894531 -0.117188 4.1875 0.140625 3.25 0.140625 C 2.3125 0.140625 1.601562 -0.117188 1.125 -0.640625 C 0.644531 -1.171875 0.40625 -1.929688 0.40625 -2.921875 L 0.40625 -3.75 L 2.203125 -3.75 L 2.203125 -2.796875 C 2.203125 -2.359375 2.289062 -2.050781 2.46875 -1.875 C 2.65625 -1.695312 2.894531 -1.609375 3.1875 -1.609375 C 3.488281 -1.609375 3.726562 -1.695312 3.90625 -1.875 C 4.09375 -2.050781 4.1875 -2.359375 4.1875 -2.796875 C 4.1875 -3.210938 4.09375 -3.578125 3.90625 -3.890625 C 3.71875 -4.210938 3.484375 -4.515625 3.203125 -4.796875 C 2.929688 -5.078125 2.632812 -5.359375 2.3125 -5.640625 C 2 -5.929688 1.703125 -6.242188 1.421875 -6.578125 C 1.140625 -6.910156 0.90625 -7.289062 0.71875 -7.71875 C 0.539062 -8.144531 0.453125 -8.648438 0.453125 -9.234375 Z M 0.453125 -9.234375 "/></g></g></g><g fill="#a8cf45" fill-opacity="1"><g transform="translate(168.304894, 275.109152)"><g><path d="M 0.171875 -12.15625 L 6.078125 -12.15625 L 6.078125 -10.421875 L 4.078125 -10.421875 L 4.078125 0 L 2.171875 0 L 2.171875 -10.421875 L 0.171875 -10.421875 Z M 0.171875 -12.15625 "/></g></g></g><g fill="#a8cf45" fill-opacity="1"><g transform="translate(176.579682, 275.109152)"><g><path d="M 2.453125 -2.796875 C 2.453125 -2.359375 2.539062 -2.046875 2.71875 -1.859375 C 2.894531 -1.679688 3.132812 -1.59375 3.4375 -1.59375 C 3.738281 -1.59375 3.976562 -1.679688 4.15625 -1.859375 C 4.332031 -2.046875 4.421875 -2.359375 4.421875 -2.796875 L 4.421875 -9.359375 C 4.421875 -9.796875 4.332031 -10.101562 4.15625 -10.28125 C 3.976562 -10.457031 3.738281 -10.546875 3.4375 -10.546875 C 3.132812 -10.546875 2.894531 -10.457031 2.71875 -10.28125 C 2.539062 -10.101562 2.453125 -9.796875 2.453125 -9.359375 Z M 0.53125 -9.234375 C 0.53125 -10.210938 0.78125 -10.96875 1.28125 -11.5 C 1.78125 -12.03125 2.5 -12.296875 3.4375 -12.296875 C 4.375 -12.296875 5.09375 -12.03125 5.59375 -11.5 C 6.09375 -10.96875 6.34375 -10.210938 6.34375 -9.234375 L 6.34375 -2.921875 C 6.34375 -1.929688 6.09375 -1.171875 5.59375 -0.640625 C 5.09375 -0.117188 4.375 0.140625 3.4375 0.140625 C 2.5 0.140625 1.78125 -0.117188 1.28125 -0.640625 C 0.78125 -1.171875 0.53125 -1.929688 0.53125 -2.921875 Z M 0.53125 -9.234375 "/></g></g></g><g fill="#a8cf45" fill-opacity="1"><g transform="translate(185.478836, 275.109152)"><g><path d="M 3.5 -12.15625 C 4.46875 -12.15625 5.1875 -11.898438 5.65625 -11.390625 C 6.125 -10.878906 6.359375 -10.128906 6.359375 -9.140625 L 6.359375 -7.5625 C 6.359375 -6.582031 6.125 -5.835938 5.65625 -5.328125 C 5.1875 -4.816406 4.46875 -4.5625 3.5 -4.5625 L 2.609375 -4.5625 L 2.609375 0 L 0.6875 0 L 0.6875 -12.15625 Z M 2.609375 -10.421875 L 2.609375 -6.296875 L 3.5 -6.296875 C 3.800781 -6.296875 4.03125 -6.375 4.1875 -6.53125 C 4.351562 -6.695312 4.4375 -7.003906 4.4375 -7.453125 L 4.4375 -9.265625 C 4.4375 -9.703125 4.351562 -10.003906 4.1875 -10.171875 C 4.03125 -10.335938 3.800781 -10.421875 3.5 -10.421875 Z M 2.609375 -10.421875 "/></g></g></g><g fill="#a8cf45" fill-opacity="1"><g transform="translate(194.048457, 275.109152)"><g/></g></g><g fill="#a8cf45" fill-opacity="1"><g transform="translate(198.767783, 275.109152)"><g><path d="M 0.6875 -12.15625 L 2.609375 -12.15625 L 2.609375 -1.734375 L 5.75 -1.734375 L 5.75 0 L 0.6875 0 Z M 0.6875 -12.15625 "/></g></g></g><g fill="#a8cf45" fill-opacity="1"><g transform="translate(206.713038, 275.109152)"><g><path d="M 2.609375 -7.03125 L 5.21875 -7.03125 L 5.21875 -5.296875 L 2.609375 -5.296875 L 2.609375 -1.734375 L 5.90625 -1.734375 L 5.90625 0 L 0.6875 0 L 0.6875 -12.15625 L 5.90625 -12.15625 L 5.90625 -10.421875 L 2.609375 -10.421875 Z M 2.609375 -7.03125 "/></g></g></g><g fill="#a8cf45" fill-opacity="1"><g transform="translate(215.126579, 275.109152)"><g><path d="M 6.875 0 L 4.953125 0 L 4.625 -2.203125 L 2.28125 -2.203125 L 1.9375 0 L 0.1875 0 L 2.140625 -12.15625 L 4.9375 -12.15625 Z M 2.515625 -3.859375 L 4.359375 -3.859375 L 3.4375 -10 Z M 2.515625 -3.859375 "/></g></g></g><g fill="#a8cf45" fill-opacity="1"><g transform="translate(224.216517, 275.109152)"><g><path d="M 4.6875 0 C 4.664062 -0.0820312 4.640625 -0.15625 4.609375 -0.21875 C 4.585938 -0.289062 4.566406 -0.378906 4.546875 -0.484375 C 4.535156 -0.585938 4.523438 -0.71875 4.515625 -0.875 C 4.515625 -1.039062 4.515625 -1.25 4.515625 -1.5 L 4.515625 -3.40625 C 4.515625 -3.96875 4.414062 -4.363281 4.21875 -4.59375 C 4.019531 -4.832031 3.703125 -4.953125 3.265625 -4.953125 L 2.609375 -4.953125 L 2.609375 0 L 0.6875 0 L 0.6875 -12.15625 L 3.578125 -12.15625 C 4.566406 -12.15625 5.285156 -11.921875 5.734375 -11.453125 C 6.179688 -10.992188 6.40625 -10.296875 6.40625 -9.359375 L 6.40625 -8.40625 C 6.40625 -7.15625 5.988281 -6.332031 5.15625 -5.9375 C 5.644531 -5.738281 5.976562 -5.414062 6.15625 -4.96875 C 6.332031 -4.53125 6.421875 -3.988281 6.421875 -3.34375 L 6.421875 -1.46875 C 6.421875 -1.175781 6.429688 -0.914062 6.453125 -0.6875 C 6.484375 -0.457031 6.539062 -0.226562 6.625 0 Z M 2.609375 -10.421875 L 2.609375 -6.6875 L 3.34375 -6.6875 C 3.707031 -6.6875 3.988281 -6.773438 4.1875 -6.953125 C 4.394531 -7.140625 4.5 -7.476562 4.5 -7.96875 L 4.5 -9.171875 C 4.5 -9.609375 4.421875 -9.925781 4.265625 -10.125 C 4.109375 -10.320312 3.863281 -10.421875 3.53125 -10.421875 Z M 2.609375 -10.421875 "/></g></g></g><g fill="#a8cf45" fill-opacity="1"><g transform="translate(233.219732, 275.109152)"><g><path d="M 2.390625 -8.796875 L 2.390625 0 L 0.671875 0 L 0.671875 -12.15625 L 3.078125 -12.15625 L 5.03125 -4.875 L 5.03125 -12.15625 L 6.734375 -12.15625 L 6.734375 0 L 4.78125 0 Z M 2.390625 -8.796875 "/></g></g></g><g fill="#a8cf45" fill-opacity="1"><g transform="translate(242.656541, 275.109152)"><g><path d="M 0.6875 -12.15625 L 2.609375 -12.15625 L 2.609375 0 L 0.6875 0 Z M 0.6875 -12.15625 "/></g></g></g><g fill="#a8cf45" fill-opacity="1"><g transform="translate(247.982896, 275.109152)"><g><path d="M 2.390625 -8.796875 L 2.390625 0 L 0.671875 0 L 0.671875 -12.15625 L 3.078125 -12.15625 L 5.03125 -4.875 L 5.03125 -12.15625 L 6.734375 -12.15625 L 6.734375 0 L 4.78125 0 Z M 2.390625 -8.796875 "/></g></g></g><g fill="#a8cf45" fill-opacity="1"><g transform="translate(257.419705, 275.109152)"><g><path d="M 3.5625 -6.765625 L 6.234375 -6.765625 L 6.234375 -2.921875 C 6.234375 -1.929688 5.992188 -1.171875 5.515625 -0.640625 C 5.035156 -0.117188 4.328125 0.140625 3.390625 0.140625 C 2.453125 0.140625 1.738281 -0.117188 1.25 -0.640625 C 0.769531 -1.171875 0.53125 -1.929688 0.53125 -2.921875 L 0.53125 -9.234375 C 0.53125 -10.210938 0.769531 -10.96875 1.25 -11.5 C 1.738281 -12.03125 2.453125 -12.296875 3.390625 -12.296875 C 4.328125 -12.296875 5.035156 -12.03125 5.515625 -11.5 C 5.992188 -10.96875 6.234375 -10.210938 6.234375 -9.234375 L 6.234375 -8.0625 L 4.421875 -8.0625 L 4.421875 -9.359375 C 4.421875 -9.796875 4.332031 -10.101562 4.15625 -10.28125 C 3.976562 -10.457031 3.738281 -10.546875 3.4375 -10.546875 C 3.132812 -10.546875 2.894531 -10.457031 2.71875 -10.28125 C 2.539062 -10.101562 2.453125 -9.796875 2.453125 -9.359375 L 2.453125 -2.796875 C 2.453125 -2.359375 2.539062 -2.050781 2.71875 -1.875 C 2.894531 -1.695312 3.132812 -1.609375 3.4375 -1.609375 C 3.738281 -1.609375 3.976562 -1.695312 4.15625 -1.875 C 4.332031 -2.050781 4.421875 -2.359375 4.421875 -2.796875 L 4.421875 -5.03125 L 3.5625 -5.03125 Z M 3.5625 -6.765625 "/></g></g></g></svg>